# xmcd CD database file
#
# Track frame offsets:
#	150
#	21175
#	42200
#
# Disc length: 672 seconds
#
# Revision: 0
# Processed by: cddbd v1.5.1PL2 Copyright (c) Steve Scherf et al.
# Submitted via: CDex 1.51
#
DISCID=1b029e03
DTITLE=ピュア天使 - カーテン
DYEAR=1900
DGENRE=サウンドトラック (テレビ)
TTITLE0=カーテン
TTITLE1=ハルユキ/カーテン　オリジナルカラオケ
TTITLE2=カーテン　TVサイズ
EXTD=
EXTT0=
EXTT1=
EXTT2=
PLAYORDER=
